<svg width="20" height="20" viewBox="0 0 20 20" fill="none" xmlns="http://www.w3.org/2000/svg">
<g id="Group">
<path id="Path" d="M15.4189 9.99997C15.4189 10.2302 15.2323 10.4168 15.0021 10.4168C14.7719 10.4168 14.5853 10.2302 14.5853 9.99997C14.5853 9.76976 14.7719 9.58313 15.0021 9.58313C15.2323 9.58313 15.4189 9.76976 15.4189 9.99997" stroke="#323232" stroke-width="1.5" stroke-linecap="round" stroke-linejoin="round"/>
<path id="Path_2" d="M10.4169 9.99997C10.4169 10.2302 10.2302 10.4168 10 10.4168C9.76982 10.4168 9.58319 10.2302 9.58319 9.99997C9.58319 9.76976 9.76982 9.58313 10 9.58313C10.2302 9.58313 10.4169 9.76976 10.4169 9.99997" stroke="#323232" stroke-width="1.5" stroke-linecap="round" stroke-linejoin="round"/>
<path id="Path_3" d="M5.4148 9.99997C5.4148 10.2302 5.22817 10.4168 4.99796 10.4168C4.76774 10.4168 4.58112 10.2302 4.58112 9.99997C4.58112 9.76976 4.76774 9.58313 4.99796 9.58313C5.22817 9.58313 5.4148 9.76976 5.4148 9.99997" stroke="#323232" stroke-width="1.5" stroke-linecap="round" stroke-linejoin="round"/>
</g>
</svg>
